<svg id="Layer_1" data-name="Layer 1" xmlns="http://www.w3.org/2000/svg" viewBox="0 0 440.96 679.21"><defs><style>.cls-1{fill:#1e1e1e;stroke:#1e1e1e;stroke-miterlimit:10;}</style></defs><title>logo2k17</title><path class="cls-1" d="M710.18,421.1c0-.33,0-.67,0-1-.49-188.06-.32-256.28.12-265.8.15-3.19.09-5.55,0-10.25-.27-15.08-1.54-18.1-2.43-19.78a20.65,20.65,0,0,0-8.66-8.46,21.81,21.81,0,0,0-15.89-2,25.75,25.75,0,0,0-11.5,6.59,35.55,35.55,0,0,0-8.59,12.1c-.21.47-.44.92-.69,1.36L544.86,343a16.71,16.71,0,0,1-14.56,8.52H456.18a16.71,16.71,0,0,1-14.44-8.31L319.91,133.84q-.39-.68-.72-1.38a35.65,35.65,0,0,0-8.89-12.09,26.75,26.75,0,0,0-11.89-6.59,23.27,23.27,0,0,0-16.44,2,21.07,21.07,0,0,0-9,8.46c-.92,1.68-2.23,4.7-2.52,19.78-.09,4.7-.15,7.06,0,10.25.46,9.6.64,79,.12,271,0,.24,0,.46,0,.7v274.2a91.13,91.13,0,0,0,91.13,91.14H619.23a91.13,91.13,0,0,0,91.13-91.14V426C710.36,424.34,710.29,422.72,710.18,421.1Z" transform="translate(-269.9 -112.61)"/><polygon class="cls-1" points="0.6 41.93 0.73 313.37 65.1 135.67 0.6 41.93"/></svg>